<svg xmlns="http://www.w3.org/2000/svg" xmlns:xlink="http://www.w3.org/1999/xlink" viewBox="0,0,256,256" width="48px" height="48px" fill-rule="nonzero"><g fill="#ffffff" fill-rule="nonzero" stroke="none" stroke-width="1" stroke-linecap="butt" stroke-linejoin="miter" stroke-miterlimit="10" stroke-dasharray="" stroke-dashoffset="0" font-family="none" font-weight="none" font-size="none" text-anchor="none" style="mix-blend-mode: normal"><g transform="scale(5.33333,5.33333)"><path d="M12.5,5c-2.481,0 -4.5,2.019 -4.5,4.5v29c0,2.481 2.019,4.5 4.5,4.5h17.16992c-1.444,-0.698 -2.69339,-1.73 -3.65039,-3h-13.51953c-0.827,0 -1.5,-0.673 -1.5,-1.5v-29c0,-0.827 0.673,-1.5 1.5,-1.5h23c0.827,0 1.5,0.673 1.5,1.5v14.96094c1.095,0.345 2.103,0.88259 3,1.55859v-16.51953c0,-2.481 -2.019,-4.5 -4.5,-4.5zM15.5,12c-0.54095,-0.00765 -1.04412,0.27656 -1.31683,0.74381c-0.27271,0.46725 -0.27271,1.04514 0,1.51238c0.27271,0.46725 0.77588,0.75146 1.31683,0.74381h15c0.54095,0.00765 1.04412,-0.27656 1.31683,-0.74381c0.27271,-0.46725 0.27271,-1.04514 0,-1.51238c-0.27271,-0.46725 -0.77588,-0.75146 -1.31683,-0.74381zM15.5,19c-0.54095,-0.00765 -1.04412,0.27656 -1.31683,0.74381c-0.27271,0.46725 -0.27271,1.04514 0,1.51238c0.27271,0.46725 0.77588,0.75146 1.31683,0.74381h15c0.54095,0.00765 1.04412,-0.27656 1.31683,-0.74381c0.27271,-0.46725 0.27271,-1.04514 0,-1.51238c-0.27271,-0.46725 -0.77588,-0.75146 -1.31683,-0.74381zM15.5,26c-0.54095,-0.00765 -1.04412,0.27656 -1.31683,0.74381c-0.27271,0.46725 -0.27271,1.04514 0,1.51238c0.27271,0.46725 0.77588,0.75146 1.31683,0.74381h7c0.54095,0.00765 1.04412,-0.27656 1.31683,-0.74381c0.27271,-0.46725 0.27271,-1.04514 0,-1.51238c-0.27271,-0.46725 -0.77588,-0.75146 -1.31683,-0.74381zM34,26c-4.411,0 -8,3.589 -8,8c0,4.411 3.589,8 8,8c1.665,0 3.21019,-0.51272 4.49219,-1.38672l4.94727,4.94727c0.293,0.294 0.67655,0.43945 1.06055,0.43945c0.384,0 0.76755,-0.14645 1.06055,-0.43945c0.585,-0.586 0.585,-1.53509 0,-2.12109l-4.94531,-4.94727c0.873,-1.282 1.38477,-2.82719 1.38477,-4.49219c0,-4.411 -3.589,-8 -8,-8zM34,29c2.757,0 5,2.243 5,5c0,2.757 -2.243,5 -5,5c-2.757,0 -5,-2.243 -5,-5c0,-2.757 2.243,-5 5,-5zM15.5,33c-0.829,0 -1.5,0.671 -1.5,1.5c0,0.829 0.671,1.5 1.5,1.5h8.70117c-0.132,-0.646 -0.20117,-1.315 -0.20117,-2c0,-0.338 0.01778,-0.671 0.05078,-1z"></path></g></g></svg>