<svg xmlns="http://www.w3.org/2000/svg"  viewBox="0 0 48 48" width="48px" height="48px"><path d="M 20.5 6 C 14.16639 6 9 11.16639 9 17.5 L 9 24.058594 C 9 27.098498 10.476915 29.783997 12.564453 31.757812 C 13.667085 32.800083 15.988661 35.769762 17.894531 38.367188 C 19.800401 40.964613 21.376953 43.251953 21.376953 43.251953 A 1.50015 1.50015 0 0 0 22.865234 43.878906 C 22.865234 43.878906 23.92314 43.703421 24.941406 42.964844 C 25.959673 42.226267 27.009766 40.749761 27.009766 38.693359 C 27.009766 37.839946 26.834844 37.037055 26.626953 36.013672 A 1.50015 1.50015 0 0 0 26.625 36.013672 C 26.269731 34.266777 25.760675 32.714512 25.068359 31 L 33.539062 31 C 36.852378 31 39.44602 28.020233 38.986328 24.738281 L 38.642578 22.292969 L 37.802734 16.292969 L 37.283203 12.570312 C 37.282939 12.568212 37.28155 12.566653 37.28125 12.564453 C 36.810017 8.8261908 33.608263 6 29.839844 6 L 20.5 6 z M 20.5 9 L 29.839844 9 C 32.121296 9 34.021147 10.676853 34.304688 12.941406 A 1.50015 1.50015 0 0 0 34.308594 12.964844 L 34.832031 16.707031 L 35.671875 22.707031 L 36.013672 25.154297 C 36.227986 26.684343 35.083748 28 33.539062 28 L 24.375 28 C 23.478462 28 22.628689 28.536806 22.230469 29.248047 C 21.832249 29.959288 21.799959 30.818769 22.125 31.580078 A 1.50015 1.50015 0 0 0 22.125 31.582031 C 22.89917 33.389384 23.317219 34.800461 23.685547 36.611328 C 23.891656 37.625945 24.009766 38.318773 24.009766 38.693359 C 24.009766 39.846958 23.610421 40.222733 23.179688 40.535156 C 23.158107 40.550806 23.160012 40.540257 23.138672 40.554688 C 22.666752 39.875507 21.860136 38.701001 20.3125 36.591797 C 18.37662 33.953472 16.189368 31.056854 14.625 29.578125 C 13.004538 28.045941 12 26.126689 12 24.058594 L 12 17.5 C 12 12.78761 15.78761 9 20.5 9 z"/></svg>