<svg xmlns="http://www.w3.org/2000/svg"  viewBox="0 0 48 48" width="48px" height="48px"><path d="M 23.998047 9 C 13.852784 9 5.4523848 15.322597 0.67382812 24.294922 A 1.50015 1.50015 0 0 0 0.69140625 25.736328 C 5.0177732 33.418088 12.618371 39.643109 21.546875 40.792969 C 22.348295 40.917179 23.162512 41 23.998047 41 C 24.073874 41 24.147075 40.98934 24.222656 40.988281 C 24.315047 40.989391 24.405426 41 24.498047 41 C 34.692338 41 42.554053 34.171403 47.304688 25.736328 A 1.50015 1.50015 0 0 0 47.322266 24.294922 C 42.543707 15.322597 34.143309 9 23.998047 9 z M 23.998047 12 C 31.195522 12 36.998047 17.80253 36.998047 25 C 36.998047 32.121608 31.314689 37.867737 24.222656 37.988281 C 23.386906 37.976384 22.560208 37.908633 21.744141 37.792969 C 15.629065 36.728642 10.998047 31.426896 10.998047 25 C 10.998047 17.80253 16.800572 12 23.998047 12 z M 25.957031 13.501953 C 25.789281 13.486578 25.615797 13.526047 25.466797 13.623047 C 21.821797 16.208047 19.66225 20.461672 19.53125 24.763672 C 17.46425 24.363672 15.397078 23.643656 13.330078 22.472656 C 13.021078 22.295656 12.629766 22.352328 12.384766 22.611328 C 12.140766 22.870328 12.105828 23.2635 12.298828 23.5625 C 14.884828 27.2045 19.133547 29.363141 23.435547 29.494141 C 23.034547 31.566141 22.311719 33.640891 21.136719 35.712891 C 20.959719 36.019891 21.016437 36.408344 21.273438 36.652344 C 21.531437 36.895344 21.92075 36.932234 22.21875 36.740234 C 25.87075 34.155234 28.036969 29.899797 28.167969 25.591797 C 30.219969 25.988797 32.272219 26.701422 34.324219 27.857422 C 34.639219 28.036422 35.037156 27.976891 35.285156 27.712891 C 35.533156 27.448891 35.567141 27.049094 35.369141 26.746094 C 32.779141 23.131094 28.547672 20.989375 24.263672 20.859375 C 24.663672 18.791375 25.385641 16.723297 26.556641 14.654297 C 26.733641 14.345297 26.675016 13.955937 26.416016 13.710938 C 26.287016 13.588438 26.124781 13.517328 25.957031 13.501953 z M 9.9140625 17.421875 C 8.6940708 19.67929 7.9980469 22.26025 7.9980469 25 C 7.9980469 27.481834 8.5837088 29.82495 9.5976562 31.923828 C 7.3423233 29.929606 5.3774777 27.562385 3.8183594 24.976562 C 5.4852008 22.045846 7.5395288 19.481153 9.9140625 17.421875 z M 38.083984 17.423828 C 40.462161 19.486506 42.519509 22.055463 44.1875 24.992188 C 42.494033 27.839322 40.460052 30.409724 38.117188 32.503906 C 39.313094 30.263696 39.998047 27.710607 39.998047 25 C 39.998047 22.261176 39.303208 19.6807 38.083984 17.423828 z M 23.849609 23.009766 C 25.046609 23.009766 26.015625 23.980734 26.015625 25.177734 C 26.015625 26.374734 25.046609 27.34375 23.849609 27.34375 C 22.652609 27.34375 21.683594 26.374734 21.683594 25.177734 C 21.683594 23.980734 22.652609 23.009766 23.849609 23.009766 z"/></svg>