<svg xmlns="http://www.w3.org/2000/svg"  viewBox="0 0 48 48" width="48px" height="48px"><path d="M 23.5 1 C 14.405064 1 7 8.4050702 7 17.5 C 7 26.088491 13.605955 33.1618 22 33.923828 L 22 39 L 16.5 39 A 1.50015 1.50015 0 1 0 16.5 42 L 22 42 L 22 46.5 A 1.50015 1.50015 0 1 0 25 46.5 L 25 42 L 30.5 42 A 1.50015 1.50015 0 1 0 30.5 39 L 25 39 L 25 33.923828 C 33.394045 33.1618 40 26.088491 40 17.5 C 40 8.4050702 32.594936 1 23.5 1 z M 23.5 4 C 30.973617 4 37 10.026388 37 17.5 C 37 24.973612 30.973617 31 23.5 31 C 16.026383 31 10 24.973612 10 17.5 C 10 10.026388 16.026383 4 23.5 4 z"/></svg>