<svg xmlns="http://www.w3.org/2000/svg"  viewBox="0 0 48 48" width="48px" height="48px"><path d="M 37.5 1 A 1.50015 1.50015 0 1 0 37.5 4 L 41.779297 4 L 35.888672 9.8886719 A 1.50015 1.50015 0 0 0 35.789062 9.9941406 C 33.76476 8.4372143 31.24139 7.5 28.5 7.5 C 22.882356 7.5 18.158607 11.398279 16.863281 16.625 C 11.024831 17.428813 6.5 22.44656 6.5 28.5 C 6.5 31.49475 7.6142655 34.231721 9.4394531 36.337891 L 7.046875 38.730469 L 4.6582031 36.341797 A 1.50015 1.50015 0 1 0 2.5371094 38.462891 L 4.9257812 40.851562 L 1.8886719 43.888672 A 1.50015 1.50015 0 1 0 4.0097656 46.009766 L 7.046875 42.972656 L 9.4375 45.363281 A 1.50015 1.50015 0 1 0 11.558594 43.242188 L 9.1679688 40.851562 L 11.671875 38.349609 C 13.613091 39.70061 15.964463 40.5 18.5 40.5 C 24.117644 40.5 28.841393 36.601721 30.136719 31.375 C 35.975169 30.571187 40.5 25.55344 40.5 19.5 C 40.5 16.707149 39.530053 14.138495 37.919922 12.095703 A 1.50015 1.50015 0 0 0 38.009766 12.009766 L 44 6.0214844 L 44 10.5 A 1.50015 1.50015 0 1 0 47 10.5 L 47 2.5 A 1.50015 1.50015 0 0 0 45.5 1 L 37.5 1 z M 28.5 10.5 C 33.488334 10.5 37.5 14.511669 37.5 19.5 C 37.5 23.803594 34.511216 27.374561 30.488281 28.275391 C 30.375995 22.269492 25.821421 17.326776 19.980469 16.601562 C 21.181772 13.046745 24.527981 10.5 28.5 10.5 z M 19.503906 19.558594 C 23.996309 20.052489 27.466601 23.819763 27.496094 28.441406 C 23.003691 27.947511 19.533399 24.180237 19.503906 19.558594 z M 16.511719 19.724609 C 16.624005 25.730508 21.178579 30.673224 27.019531 31.398438 C 25.818228 34.953255 22.472019 37.5 18.5 37.5 C 13.511666 37.5 9.5 33.488331 9.5 28.5 C 9.5 24.196406 12.488784 20.625439 16.511719 19.724609 z"/></svg>