<svg xmlns="http://www.w3.org/2000/svg"  viewBox="0 0 48 48" width="48px" height="48px"><path d="M 29 4.5 A 1.50015 1.50015 0 1 0 29 7.5 L 39.214844 7.5 L 30.023438 16.689453 A 1.5005302 1.5005302 0 0 0 29.964844 16.755859 C 27.114613 14.410848 23.468547 13 19.5 13 C 10.405064 13 3 20.40507 3 29.5 C 3 38.59493 10.405064 46 19.5 46 C 28.594936 46 36 38.59493 36 29.5 C 36 25.44857 34.523495 21.738862 32.089844 18.863281 A 1.5005302 1.5005302 0 0 0 32.146484 18.810547 L 41.5 9.4570312 L 41.5 20 A 1.50015 1.50015 0 1 0 44.5 20 L 44.5 6 A 1.50015 1.50015 0 0 0 43 4.5 L 29 4.5 z M 19.5 16 C 26.973617 16 33 22.026388 33 29.5 C 33 36.973612 26.973617 43 19.5 43 C 12.026383 43 6 36.973612 6 29.5 C 6 22.026388 12.026383 16 19.5 16 z"/></svg>