<svg xmlns="http://www.w3.org/2000/svg"  viewBox="0 0 48 48" width="48px" height="48px"><path d="M 9 18 C 7.1250005 18 5.528815 18.757133 4.5039062 19.910156 C 3.4789975 21.063179 3 22.541667 3 24 C 3 25.458333 3.4789975 26.936821 4.5039062 28.089844 C 5.528815 29.242867 7.1250005 30 9 30 C 10.875 30 12.471185 29.242867 13.496094 28.089844 C 14.521003 26.936821 15 25.458333 15 24 C 15 22.541667 14.521003 21.063179 13.496094 19.910156 C 12.471185 18.757133 10.875 18 9 18 z M 24 18 C 22.125 18 20.528815 18.757133 19.503906 19.910156 C 18.478997 21.063179 18 22.541667 18 24 C 18 25.458333 18.478997 26.936821 19.503906 28.089844 C 20.528815 29.242867 22.125 30 24 30 C 25.875 30 27.471185 29.242867 28.496094 28.089844 C 29.521003 26.936821 30 25.458333 30 24 C 30 22.541667 29.521003 21.063179 28.496094 19.910156 C 27.471185 18.757133 25.875 18 24 18 z M 39 18 C 37.125 18 35.528815 18.757133 34.503906 19.910156 C 33.478997 21.063179 33 22.541667 33 24 C 33 25.458333 33.478997 26.936821 34.503906 28.089844 C 35.528815 29.242867 37.125 30 39 30 C 40.875 30 42.471185 29.242867 43.496094 28.089844 C 44.521003 26.936821 45 25.458333 45 24 C 45 22.541667 44.521003 21.063179 43.496094 19.910156 C 42.471185 18.757133 40.875 18 39 18 z M 9 21 C 10.124999 21 10.778816 21.367867 11.253906 21.902344 C 11.728997 22.436821 12 23.208333 12 24 C 12 24.791667 11.728997 25.563179 11.253906 26.097656 C 10.778816 26.632133 10.124999 27 9 27 C 7.8750008 27 7.2211843 26.632133 6.7460938 26.097656 C 6.2710032 25.563179 6 24.791667 6 24 C 6 23.208333 6.2710031 22.436821 6.7460938 21.902344 C 7.2211843 21.367867 7.8750008 21 9 21 z M 24 21 C 25.124999 21 25.778816 21.367867 26.253906 21.902344 C 26.728997 22.436821 27 23.208333 27 24 C 27 24.791667 26.728997 25.563179 26.253906 26.097656 C 25.778816 26.632133 25.124999 27 24 27 C 22.875001 27 22.221184 26.632133 21.746094 26.097656 C 21.271003 25.563179 21 24.791667 21 24 C 21 23.208333 21.271003 22.436821 21.746094 21.902344 C 22.221184 21.367867 22.875001 21 24 21 z M 39 21 C 40.124999 21 40.778816 21.367867 41.253906 21.902344 C 41.728997 22.436821 42 23.208333 42 24 C 42 24.791667 41.728997 25.563179 41.253906 26.097656 C 40.778816 26.632133 40.124999 27 39 27 C 37.875001 27 37.221184 26.632133 36.746094 26.097656 C 36.271003 25.563179 36 24.791667 36 24 C 36 23.208333 36.271003 22.436821 36.746094 21.902344 C 37.221184 21.367867 37.875001 21 39 21 z"/></svg>