<svg xmlns="http://www.w3.org/2000/svg" xmlns:xlink="http://www.w3.org/1999/xlink" viewBox="0,0,256,256" width="24px" height="24px" fill-rule="evenodd"><g fill="#ffa300" fill-rule="evenodd" stroke="none" stroke-width="1" stroke-linecap="butt" stroke-linejoin="miter" stroke-miterlimit="10" stroke-dasharray="" stroke-dashoffset="0" font-family="none" font-weight="none" font-size="none" text-anchor="none" style="mix-blend-mode: normal"><g transform="scale(10.66667,10.66667)"><path d="M22.688,17.688l-3.326,-3.326c0.175,0.995 -0.159,2.163 -0.998,3.002c-0.938,0.938 -2.289,1.25 -3.348,0.918c-0.185,0.354 -0.459,0.675 -0.792,0.942l3.464,3.464c0.584,0.584 1.583,0.308 1.784,-0.494l0.318,-1.273c0.139,-0.557 0.574,-0.992 1.131,-1.131l1.273,-0.318c0.802,-0.201 1.078,-1.2 0.494,-1.784z"></path><path d="M1.312,17.688l3.326,-3.326c-0.175,0.995 0.159,2.163 0.998,3.002c0.938,0.938 2.289,1.25 3.348,0.918c0.185,0.354 0.459,0.675 0.792,0.942l-3.464,3.464c-0.584,0.584 -1.583,0.308 -1.784,-0.494l-0.318,-1.273c-0.139,-0.557 -0.574,-0.992 -1.131,-1.131l-1.273,-0.318c-0.802,-0.201 -1.078,-1.2 -0.494,-1.784z"></path><path d="M8.984,3.718c0.514,-0.983 1.69,-1.718 3.016,-1.718c1.326,0 2.502,0.735 3.016,1.718c1.058,-0.332 2.41,-0.02 3.348,0.918c0.938,0.938 1.25,2.289 0.918,3.348c0.983,0.514 1.718,1.69 1.718,3.016c0,1.326 -0.735,2.502 -1.718,3.016c0.332,1.058 0.02,2.41 -0.918,3.348c-0.938,0.938 -2.289,1.25 -3.348,0.918c-0.514,0.983 -1.69,1.718 -3.016,1.718c-1.326,0 -2.502,-0.735 -3.016,-1.718c-1.058,0.332 -2.41,0.02 -3.348,-0.918c-0.938,-0.938 -1.25,-2.289 -0.918,-3.348c-0.983,-0.514 -1.718,-1.69 -1.718,-3.016c0,-1.326 0.735,-2.502 1.718,-3.016c-0.332,-1.058 -0.02,-2.41 0.918,-3.348c0.938,-0.938 2.289,-1.25 3.348,-0.918z" opacity="0.35"></path></g></g></svg>