<svg xmlns="http://www.w3.org/2000/svg" xmlns:xlink="http://www.w3.org/1999/xlink" viewBox="0,0,256,256" width="24px" height="24px" fill-rule="none"><g fill="#339af0" fill-rule="none" stroke="none" stroke-width="1" stroke-linecap="butt" stroke-linejoin="miter" stroke-miterlimit="10" stroke-dasharray="" stroke-dashoffset="0" font-family="none" font-weight="none" font-size="none" text-anchor="none" style="mix-blend-mode: normal"><g transform="scale(10.66667,10.66667)"><path d="M8.991,3.897c0.571,-1.092 1.878,-1.909 3.351,-1.909c1.473,0 2.781,0.816 3.351,1.909c1.176,-0.369 2.677,-0.022 3.72,1.02c1.042,1.042 1.389,2.543 1.02,3.72c1.092,0.571 1.909,1.878 1.909,3.351c0,1.473 -0.816,2.78 -1.909,3.351c0.369,1.176 0.022,2.677 -1.02,3.72c-1.042,1.042 -2.543,1.389 -3.72,1.02c-0.571,1.092 -1.878,1.909 -3.351,1.909c-1.473,0 -2.78,-0.816 -3.351,-1.909c-1.176,0.369 -2.678,0.022 -3.72,-1.02c-1.042,-1.042 -1.389,-2.544 -1.02,-3.72c-1.092,-0.571 -1.909,-1.878 -1.909,-3.351c0,-1.473 0.816,-2.781 1.909,-3.351c-0.369,-1.176 -0.022,-2.677 1.02,-3.72c1.042,-1.042 2.544,-1.388 3.72,-1.02z" fill-rule="evenodd" opacity="0.35"></path><path d="M11,16c-0.256,0 -0.512,-0.098 -0.707,-0.293l-3,-3c-0.391,-0.391 -0.391,-1.023 0,-1.414c0.391,-0.391 1.023,-0.391 1.414,0l2.293,2.293l4.293,-4.293c0.391,-0.391 1.023,-0.391 1.414,0c0.391,0.391 0.391,1.023 0,1.414l-5,5c-0.195,0.195 -0.451,0.293 -0.707,0.293z" fill-rule="nonzero"></path></g></g></svg>